# xmcd
#
# Track frame offsets: 
#        300
#        16828
#        27062
#        41763
#        57386
#        75286
#        107802
#        119888
#        136348
#        152775
#        171516
#
# Disc length: 2533 seconds
#
# Revision: 3
# Processed by: cddbd v1.5.2PL0 Copyright (c) Steve Scherf et al.
# Submitted via: ExactAudioCopy v0.99pb5
#
DISCID=9009e10b
DTITLE=Cortney Tidwell - Don't Let Stars Keep Us Tangled Up
DYEAR=2006
DGENRE=Dream Pop
TTITLE0=Eyes are at the Billions
TTITLE1=Pictures On the Sidewalk
TTITLE2=Missing Link
TTITLE3=I Do Not Notice
TTITLE4=La La
TTITLE5=Don't Let Stars Keep Us Tangled Up
TTITLE6=New Commitment
TTITLE7=Society
TTITLE8=Our Time
TTITLE9=Illegal
TTITLE10=The Tide
EXTD=
EXTT0=
EXTT1=
EXTT2=
EXTT3=
EXTT4=
EXTT5=
EXTT6=
EXTT7=
EXTT8=
EXTT9=
EXTT10=
PLAYORDER=
